# xmcd
#
# Track frame offsets: 
#        150
#        18710
#        32787
#        57322
#        93630
#        112657
#        131480
#        144462
#        156500
#        171427
#        195295
#
# Disc length: 2915 seconds
#
# Revision: 0
# Processed by: cddbd v1.4PL0 Copyright (c) Steve Scherf et al.
# Submitted via: ExactAudioCopy v0.90a11
#
DISCID=950b610b
DTITLE=Jon Cleary - Jon Cleary and the absolute monster gentlemen
DYEAR=1900
DGENRE=
TTITLE0=Sometimes I Wonder
TTITLE1=Cheating On You
TTITLE2=More Hipper
TTITLE3=Just Kissed My Baby
TTITLE4=When You Get Back
TTITLE5=Take My Love
TTITLE6=A Little Satisfaction
TTITLE7=Been and Gone
TTITLE8=So Damn Good
TTITLE9=Fanning The Flames
TTITLE10=Too Damn Hot
EXTD=
EXTT0=
EXTT1=
EXTT2=
EXTT3=
EXTT4=
EXTT5=
EXTT6=
EXTT7=
EXTT8=
EXTT9=
EXTT10=
PLAYORDER=
